<svg xmlns="http://www.w3.org/2000/svg" preserveAspectRatio="none">

	<symbol id="ico-1-1" xmlns="http://www.w3.org/2000/svg" viewBox="0 0 100 100">
		<path d="M50.678 24.341c-6.638 0-12.864 2.571-17.533 7.24l-25.67 25.67c-9.591 9.814-9.585 25.609.028 35.222 4.768 4.659 11.045 7.225 17.675 7.225 6.638 0 12.865-2.571 17.533-7.239l25.67-25.67c9.591-9.814 9.585-25.609-.028-35.222-4.768-4.66-11.045-7.226-17.675-7.226zm15.215 39.988L40.237 89.984c-4.007 4.007-9.355 6.214-15.058 6.214-5.711 0-11.119-2.212-15.215-6.214-8.25-8.25-8.243-21.837 0-30.273L35.62 34.056c4.007-4.007 9.355-6.214 15.058-6.214 5.711 0 11.119 2.212 15.215 6.214 8.249 8.25 8.243 21.837 0 30.273zm-9.595-23.153l-6.376 6.376-6.376-6.376-2.475 2.475 6.376 6.376-6.376 6.376 2.475 2.475 6.376-6.376 6.376 6.376 2.475-2.475-6.376-6.376 6.376-6.376-2.475-2.475zM30.614 72.254l-2.92-2.92-2.475 2.475 2.92 2.92 2.475-2.475zm-15.198 9.358l2.92 2.92 2.475-2.475-2.92-2.92-2.475 2.475zm10.22.835l2.92 2.92 2.475-2.475-2.92-2.92-2.475 2.475zm-5.66-10.61l-2.92-2.92-2.475 2.475 2.92 2.92 2.475-2.475zM54.615 14.59v3.5c15.022 0 27.243 12.221 27.243 27.243h3.5c0-16.951-13.792-30.743-30.743-30.743zm0-14.392v3.5c22.958 0 41.635 18.678 41.635 41.635h3.5C99.75 20.446 79.502.198 54.615.198z"/>
	</symbol>

	<symbol id="ico-1-2" xmlns="http://www.w3.org/2000/svg" viewBox="0 0 100 100">
		<path d="M95.707 26.732H4.553c-2.068 0-3.75 1.682-3.75 3.75v48.312c0 2.068 1.682 3.75 3.75 3.75h91.154c2.068 0 3.75-1.682 3.75-3.75V30.482c0-2.068-1.682-3.75-3.75-3.75zm.25 52.062c0 .133-.117.25-.25.25H4.553c-.133 0-.25-.117-.25-.25V63.21h5.589c-.61 1.026-.967 2.22-.967 3.498 0 3.791 3.084 6.875 6.875 6.875h9.867c3.791 0 6.875-3.084 6.875-6.875 0-1.278-.357-2.472-.967-3.498h15.567c-.61 1.026-.967 2.22-.967 3.498 0 3.791 3.084 6.875 6.875 6.875h31.867c3.791 0 6.875-3.084 6.875-6.875 0-1.278-.357-2.472-.967-3.498h5.133v15.584zM12.425 66.708c0-1.861 1.514-3.375 3.375-3.375h9.867c1.861 0 3.375 1.514 3.375 3.375s-1.514 3.375-3.375 3.375H15.8c-1.861 0-3.375-1.514-3.375-3.375zm37.25 0c0-1.861 1.514-3.375 3.375-3.375h1.992v6.75H53.05c-1.861 0-3.375-1.514-3.375-3.375zm8.867 3.375v-6.75h4.667v6.75h-4.667zm8.166 0v-6.75h4.667v6.75h-4.667zm8.167 0v-6.75h4.667v6.75h-4.667zm8.167 0v-6.75h1.875c1.861 0 3.375 1.514 3.375 3.375s-1.514 3.375-3.375 3.375h-1.875zM95.957 59.71H4.303V30.482c0-.133.117-.25.25-.25h91.154c.133 0 .25.117.25.25V59.71zM20.283 34.444H8.276v12.001l8.225 8.297c.342.345.792.518 1.243.518.445 0 .891-.169 1.232-.507.687-.68.691-1.788.011-2.475l-7.21-7.274v-7.061h7.056l7.205 7.205c.684.684 1.791.684 2.475 0 .684-.683.684-1.792 0-2.475l-8.23-8.229z"/>
	</symbol>

	<symbol id="ico-1-3" xmlns="http://www.w3.org/2000/svg" viewBox="0 0 100 100">
		<path d="M52.174 9.769c-1.394 0-2.527 1.134-2.527 2.527s1.134 2.527 2.527 2.527c1.394 0 2.528-1.134 2.528-2.527s-1.134-2.527-2.528-2.527zm-.318 25.421c-1.394 0-2.527 1.134-2.527 2.528 0 1.394 1.134 2.527 2.527 2.527s2.527-1.134 2.527-2.527c.001-1.394-1.133-2.528-2.527-2.528zm18.381-4.591c-4.11 0-7.454 3.343-7.454 7.453s3.344 7.454 7.454 7.454 7.454-3.344 7.454-7.454-3.344-7.453-7.454-7.453zm0 11.407c-2.18 0-3.954-1.773-3.954-3.954 0-2.18 1.773-3.953 3.954-3.953s3.954 1.773 3.954 3.953c-.001 2.18-1.774 3.954-3.954 3.954zM94.725 21.25H65.231V.177H39.116V21.25H4.939l-5.025 5.025V49.83l5.025 5.025h.996v43.75h87.793v-43.75h.996l5.025-5.025V26.275l-5.024-5.025zM42.616 3.677h19.115V21.25H42.616V3.677zM16.794 24.75H82.87v26.605H16.794V24.75zM3.415 48.38V27.725L6.39 24.75h6.905v26.605H6.39L3.415 48.38zm40.507 46.724H9.436V55.105h34.486v39.999zm10.328-.083h-6.828V55.105h6.828v39.916zm35.979.083H57.75V55.105h32.479v39.999zM96.25 48.38l-2.975 2.975H86.37V24.75h6.905l2.975 2.975V48.38zM34.445 30.599c-4.11 0-7.453 3.343-7.453 7.453s3.343 7.454 7.453 7.454 7.454-3.344 7.454-7.454-3.344-7.453-7.454-7.453zm0 11.407c-2.18 0-3.953-1.773-3.953-3.954 0-2.18 1.773-3.953 3.953-3.953 2.18 0 3.954 1.773 3.954 3.953 0 2.18-1.774 3.954-3.954 3.954z"/>
	</symbol>

	<symbol id="ico-2-1" xmlns="http://www.w3.org/2000/svg" viewBox="0 0 100 100">
		<path d="M29.82 38.377h7.034c.967 0 1.75-.784 1.75-1.75s-.783-1.75-1.75-1.75H29.82c-.967 0-1.75.784-1.75 1.75s.784 1.75 1.75 1.75zm17.044 1.267h6.033c2.206 0 4-1.794 4-4V29.73c0-2.206-1.794-4-4-4h-6.033c-2.206 0-4 1.794-4 4v5.913c0 2.206 1.794 4.001 4 4.001zm-.5-9.914c0-.276.225-.5.5-.5h6.033c.275 0 .5.224.5.5v5.913c0 .276-.225.5-.5.5h-6.033c-.275 0-.5-.224-.5-.5V29.73zm17.065 8.647h7.034c.967 0 1.75-.784 1.75-1.75s-.783-1.75-1.75-1.75h-7.034c-.967 0-1.75.784-1.75 1.75s.783 1.75 1.75 1.75zm-24.48 17.087c-.594-1.027-1.656-1.64-2.842-1.64-1.187 0-2.249.613-2.842 1.641L22.579 73.974c-.593 1.028-.593 2.254.001 3.282.593 1.027 1.655 1.64 2.842 1.64h21.371c1.187 0 2.249-.614 2.842-1.641.594-1.028.593-2.254 0-3.281l-10.686-18.51zM25.8 75.396l10.308-17.853 10.307 17.853H25.8zm56.983-64.074H17.5c-3.488 0-6.326 2.838-6.326 6.326v65.283c0 3.488 2.838 6.326 6.326 6.326h65.283c3.487 0 6.325-2.838 6.325-6.326V17.648c0-3.488-2.837-6.326-6.325-6.326zm2.825 71.609c0 1.559-1.268 2.826-2.825 2.826H17.5c-1.559 0-2.826-1.268-2.826-2.826V17.648c0-1.558 1.268-2.826 2.826-2.826h65.283c1.558 0 2.825 1.268 2.825 2.826v65.283zm8.578-82.2H6.098C3.057.731.583 3.205.583 6.245v88.088c0 3.041 2.474 5.514 5.515 5.514h88.088c3.041 0 5.515-2.474 5.515-5.514V6.246C99.7 3.205 97.227.731 94.186.731zM96.2 94.333c0 1.111-.903 2.014-2.015 2.014H6.098c-1.111 0-2.015-.903-2.015-2.014V6.246c0-1.111.903-2.014 2.015-2.014h88.088c1.111 0 2.015.903 2.015 2.014v88.087zM74.861 53.824H53.49c-1.187 0-2.249.614-2.842 1.641-.594 1.028-.593 2.254 0 3.281l10.686 18.509c.594 1.027 1.656 1.64 2.842 1.64 1.187 0 2.249-.613 2.842-1.641l10.687-18.509c.593-1.028.593-2.254-.001-3.282-.594-1.025-1.656-1.639-2.843-1.639zM64.176 75.177L53.869 57.324h20.614L64.176 75.177z"/>
	</symbol>

	<symbol id="ico-2-2" xmlns="http://www.w3.org/2000/svg" viewBox="0 0 100 100">
		<path d="M12.564 53.87c-1.525 0-2.766 1.24-2.766 2.765s1.24 2.766 2.766 2.766 2.766-1.241 2.766-2.766-1.241-2.765-2.766-2.765zm10.71 0c-1.525 0-2.766 1.24-2.766 2.765s1.24 2.766 2.766 2.766 2.766-1.241 2.766-2.766-1.241-2.765-2.766-2.765zm21.461 15.536c-1.525 0-2.766 1.24-2.766 2.766 0 1.524 1.24 2.765 2.766 2.765s2.766-1.24 2.766-2.765c-.001-1.526-1.241-2.766-2.766-2.766zM78.487.554H21.622L.256 23.075V48.99l-.066-.001C-.051 76.434 22.08 98.958 49.524 99.2c.149.001.297.002.446.002 13.135 0 25.522-5.116 34.923-14.435 9.571-9.487 14.842-22.145 14.842-35.642h.119v-26.05L78.487.554zM3.719 50.75h28.493v11.925H5.623c-1.136-3.796-1.788-7.796-1.904-11.925zM82.43 82.282c-8.74 8.665-20.253 13.42-32.46 13.42-.138 0-.277 0-.414-.002-19.466-.171-36.045-12.406-42.717-29.525h25.238v15.452h35.629V66.175h25.326c-2.338 5.976-5.908 11.454-10.602 16.107zm-46.854-4.155V66.202h28.629v11.925H35.576zm58.676-15.452H67.586V50.75h28.61c-.139 4.094-.791 8.095-1.944 11.925zm2.102-15.425H64.086v15.452H35.712V47.25H3.756V24.471l19.37-20.417h53.857l19.371 20.417V47.25zm-75.42-24.489c0 5.429 4.416 9.845 9.845 9.845h18.357v-3.5H30.778c-3.498 0-6.345-2.847-6.345-6.345s2.847-6.345 6.345-6.345h18.357v-3.5H30.778c-5.428 0-9.844 4.416-9.844 9.845zm55.426 36.64c1.524 0 2.765-1.241 2.765-2.766s-1.24-2.765-2.765-2.765c-1.525 0-2.766 1.24-2.766 2.765s1.24 2.766 2.766 2.766zM55.445 69.406c-1.525 0-2.766 1.24-2.766 2.766 0 1.524 1.24 2.765 2.766 2.765s2.766-1.24 2.766-2.765c-.001-1.526-1.241-2.766-2.766-2.766zM87.07 59.401c1.524 0 2.765-1.241 2.765-2.766s-1.24-2.765-2.765-2.765c-1.525 0-2.766 1.24-2.766 2.765s1.24 2.766 2.766 2.766z"/>
	</symbol>

	<symbol id="ico-2-3" xmlns="http://www.w3.org/2000/svg" viewBox="0 0 100 100">
		<path d="M53.341 75.396h3.5V24.604h-3.5v50.792zm-9.959-12.2h3.5V36.804h-3.5v26.392zm-19.919 8.216h3.5V28.588h-3.5v42.824zm-9.959-7.967h3.5v-26.89h-3.5v26.89zm19.919 2.241h3.5V34.314h-3.5v31.372zM63.3 71.164h3.5V28.836h-3.5v42.328zM50.111.695C22.924.695.806 22.813.806 50s22.118 49.305 49.306 49.305S99.417 77.187 99.417 50 77.299.695 50.111.695zm0 95.11C24.854 95.805 4.306 75.257 4.306 50S24.854 4.195 50.111 4.195 95.917 24.743 95.917 50 75.369 95.805 50.111 95.805zm33.108-59.001v26.392h3.5V36.804h-3.5zM73.26 65.686h3.5V34.314h-3.5v31.372z"/>
	</symbol>

	<symbol id="ico-3-1" xmlns="http://www.w3.org/2000/svg" viewBox="0 0 100 100">
		<path d="M39.659 56.372c-1.388 0-2.517 1.129-2.517 2.517s1.129 2.517 2.517 2.517 2.517-1.129 2.517-2.517-1.13-2.517-2.517-2.517zm-9.896 0c-1.388 0-2.517 1.129-2.517 2.517s1.129 2.517 2.517 2.517 2.517-1.129 2.517-2.517-1.13-2.517-2.517-2.517zM45.04 16.41H19.287v22.243H45.04V16.41zm-3.5 18.743H22.787V19.91H41.54v15.243zm-1.945 41.213c1.388 0 2.517-1.129 2.517-2.518 0-1.388-1.129-2.517-2.517-2.517s-2.517 1.129-2.517 2.517c-.001 1.389 1.129 2.518 2.517 2.518zm11.462-26.282H19.193v17.752h9.832v14.96h50.424V65.044H51.057v-14.96zM22.693 64.337V53.584h24.864v10.752H22.693zm53.255 4.207v10.753H32.524V68.544h43.424zM90.51 35.927V11.885c0-2.749-2.16-4.984-4.815-4.984H13.983c-2.655 0-4.814 2.236-4.814 4.984v24.043l-9.24 6.423v14.751l9.24 6.423v24.043c0 2.748 2.16 4.984 4.814 4.984h71.712c2.655 0 4.815-2.236 4.815-4.984V63.525l9.24-6.423V42.351l-9.24-6.424zM9.168 59.262l-5.74-3.99V44.18l5.74-3.99v19.072zM87.01 87.567c0 .805-.602 1.484-1.315 1.484H13.983c-.712 0-1.314-.68-1.314-1.484V11.885c0-.805.602-1.484 1.314-1.484h71.712c.713 0 1.315.68 1.315 1.484v75.682zm9.24-32.295l-5.74 3.99V40.19l5.74 3.99v11.092zM58.913 76.366c1.388 0 2.517-1.129 2.517-2.518 0-1.388-1.129-2.517-2.517-2.517s-2.517 1.129-2.517 2.517c0 1.389 1.13 2.518 2.517 2.518zm-9.659 0c1.388 0 2.517-1.129 2.517-2.518 0-1.388-1.129-2.517-2.517-2.517s-2.517 1.129-2.517 2.517c0 1.389 1.129 2.518 2.517 2.518zm19.319 0c1.388 0 2.517-1.129 2.517-2.518 0-1.388-1.129-2.517-2.517-2.517s-2.517 1.129-2.517 2.517c-.001 1.389 1.129 2.518 2.517 2.518z"/>
	</symbol>

	<symbol id="ico-3-2" xmlns="http://www.w3.org/2000/svg" viewBox="0 0 100 100">
		<path d="M49.891.38C22.523.38.258 22.646.258 50.013c0 27.367 22.265 49.633 49.633 49.633S99.524 77.38 99.524 50.013C99.524 22.646 77.258.38 49.891.38zm0 95.766c-25.438 0-46.133-20.695-46.133-46.133 0-25.438 20.695-46.133 46.133-46.133 25.438 0 46.133 20.695 46.133 46.133 0 25.438-20.695 46.133-46.133 46.133zM12.643 42.782c-3.798 0-6.887 3.089-6.887 6.886s3.089 6.886 6.887 6.886c3.797 0 6.886-3.089 6.886-6.886s-3.09-6.886-6.886-6.886zm0 10.272c-1.868 0-3.387-1.519-3.387-3.386s1.52-3.386 3.387-3.386 3.386 1.519 3.386 3.386-1.52 3.386-3.386 3.386zm74.497-9.581c-3.797 0-6.887 3.089-6.887 6.886s3.089 6.887 6.887 6.887c3.797 0 6.886-3.089 6.886-6.887 0-3.797-3.089-6.886-6.886-6.886zm0 10.273c-1.868 0-3.387-1.519-3.387-3.387 0-1.867 1.519-3.386 3.387-3.386 1.867 0 3.386 1.519 3.386 3.386 0 1.868-1.519 3.387-3.386 3.387zM49.891 27.777c-12.261 0-22.237 9.976-22.237 22.237S37.629 72.25 49.891 72.25s22.237-9.975 22.237-22.236-9.976-22.237-22.237-22.237zm0 40.973c-10.332 0-18.737-8.405-18.737-18.736 0-10.332 8.405-18.737 18.737-18.737s18.737 8.405 18.737 18.737c-.001 10.331-8.406 18.736-18.737 18.736zm0-46.607c-15.368 0-27.871 12.503-27.871 27.871 0 15.367 12.503 27.87 27.871 27.87s27.871-12.503 27.871-27.87c-.001-15.368-12.504-27.871-27.871-27.871zm0 52.241c-13.438 0-24.371-10.933-24.371-24.37 0-13.438 10.933-24.371 24.371-24.371s24.371 10.933 24.371 24.371c-.001 13.437-10.933 24.37-24.371 24.37z"/>
	</symbol>

	<symbol id="ico-3-3" xmlns="http://www.w3.org/2000/svg" viewBox="0 0 100 100">
		<path d="M99.715 31.845c-.277-8.962-4.146-17.18-10.895-23.141C82.999 3.562 75.452.731 67.57.731c-7.879 0-15.423 2.83-21.244 7.968-5.485 4.842-9.075 11.177-10.383 18.321-.863 4.712-2.208 10.476-4.983 13.251L6.134 65.099c-8.046 8.046-8.157 21.026-.247 28.936 3.771 3.771 8.828 5.848 14.24 5.848 5.546 0 10.766-2.165 14.696-6.095l24.138-24.139c3.039-3.038 9.315-4.346 13.771-5.064 6.694-1.08 12.773-4.191 17.579-8.998 6.25-6.25 9.678-14.904 9.404-23.742zM56.486 67.174L32.348 91.313c-3.269 3.269-7.609 5.069-12.221 5.069-4.478 0-8.655-1.713-11.765-4.822-6.545-6.545-6.434-17.305.247-23.986l24.482-24.482 23.754 23.753c-.12.109-.245.215-.359.329zm31.35-14.062c-4.283 4.282-9.698 7.055-15.662 8.017-4.019.648-8.753 1.638-12.435 3.662L35.297 40.347c2.162-3.502 3.283-8.284 4.09-12.697 1.165-6.364 4.366-12.01 9.257-16.327 5.18-4.573 11.902-7.092 18.927-7.092 7.028 0 13.751 2.52 18.932 7.096 6.017 5.314 9.466 12.64 9.714 20.626.247 7.993-2.729 15.507-8.381 21.159zM16.403 77.536c-1.732 0-3.359.673-4.582 1.895-2.525 2.527-2.525 6.638.001 9.163 1.222 1.223 2.849 1.896 4.581 1.896s3.359-.673 4.582-1.896c2.525-2.526 2.525-6.637 0-9.162-1.223-1.223-2.85-1.896-4.582-1.896zm2.107 8.583c-1.123 1.123-3.09 1.123-4.213 0-1.162-1.162-1.162-3.052 0-4.214.561-.561 1.309-.869 2.106-.869s1.545.309 2.107.87c1.161 1.161 1.161 3.051 0 4.213zM67.57 7.468c-6.779 0-13.152 2.64-17.945 7.433-9.896 9.895-9.896 25.996 0 35.891 4.793 4.793 11.167 7.434 17.945 7.434s13.152-2.64 17.946-7.434c9.896-9.895 9.896-25.996 0-35.891-4.793-4.794-11.167-7.433-17.946-7.433zm15.472 40.849c-4.133 4.132-9.627 6.408-15.471 6.408S56.232 52.449 52.1 48.317c-8.53-8.531-8.53-22.411 0-30.941 4.132-4.132 9.626-6.408 15.471-6.408s11.338 2.275 15.471 6.408c8.53 8.53 8.53 22.41 0 30.941z"/>
	</symbol>

	<symbol id="ico-4-1" xmlns="http://www.w3.org/2000/svg" viewBox="0 0 100 100">
		<path d="M63.189 16.404c-1.368 0-2.476 1.109-2.476 2.476 0 1.368 1.109 2.476 2.476 2.476 1.368 0 2.476-1.109 2.476-2.476 0-1.368-1.109-2.476-2.476-2.476zm11.82-5.082h-8.658V-.08H33.462v11.401h-9.177L11.227 24.379v50.724l13.059 13.059h3.581v.067h5.596v11.392h32.889V88.229h5.597v-.067h3.062L88.07 75.103V24.379L75.009 11.322zM36.962 3.42h25.889v7.89H36.962V3.42zm-5.596 11.419h37.081v8.199H31.366v-8.199zm31.485 81.282H36.962v-7.89h25.889v7.89zm5.596-11.459H31.366v-8.131h37.081v8.131zm16.12-49.023H72.863v27.837h11.704v10.179L73.56 84.662h-1.612V73.031H27.866v11.631h-2.132L14.727 73.654V63.476h11.852V35.639H14.727V25.83l11.008-11.008h2.132v11.716h44.081V14.822h1.612L84.567 25.83v9.809zm-.004 3.5v20.837h-8.199V39.139h8.199zM14.88 59.976V39.139h8.198v20.837H14.88zm39.454-43.572c-1.368 0-2.476 1.109-2.476 2.476 0 1.368 1.109 2.476 2.476 2.476 1.368 0 2.476-1.109 2.476-2.476 0-1.368-1.108-2.476-2.476-2.476zm-8.855 0c-1.368 0-2.476 1.109-2.476 2.476 0 1.368 1.109 2.476 2.476 2.476 1.368 0 2.476-1.109 2.476-2.476.001-1.368-1.108-2.476-2.476-2.476zm-8.855 0c-1.368 0-2.476 1.109-2.476 2.476 0 1.368 1.109 2.476 2.476 2.476 1.368 0 2.476-1.109 2.476-2.476.001-1.368-1.108-2.476-2.476-2.476zm17.71 66.644c1.368 0 2.476-1.109 2.476-2.476 0-1.368-1.109-2.476-2.476-2.476-1.368 0-2.476 1.109-2.476 2.476-.001 1.368 1.108 2.476 2.476 2.476zM19.038 51.713c-1.368 0-2.476 1.109-2.476 2.476s1.109 2.476 2.476 2.476 2.476-1.109 2.476-2.476-1.109-2.476-2.476-2.476zm61.483-4.312c1.368 0 2.476-1.109 2.476-2.476s-1.109-2.476-2.476-2.476-2.476 1.109-2.476 2.476 1.109 2.476 2.476 2.476zM63.189 83.048c1.368 0 2.476-1.109 2.476-2.476 0-1.368-1.109-2.476-2.476-2.476-1.368 0-2.476 1.109-2.476 2.476-.001 1.368 1.108 2.476 2.476 2.476zm-44.151-40.6c-1.368 0-2.476 1.109-2.476 2.476s1.109 2.476 2.476 2.476 2.476-1.109 2.476-2.476-1.109-2.476-2.476-2.476zm61.483 14.218c1.368 0 2.476-1.109 2.476-2.476s-1.109-2.476-2.476-2.476-2.476 1.109-2.476 2.476 1.109 2.476 2.476 2.476zM45.479 83.048c1.368 0 2.476-1.109 2.476-2.476 0-1.368-1.109-2.476-2.476-2.476-1.368 0-2.476 1.109-2.476 2.476 0 1.368 1.108 2.476 2.476 2.476zm-8.855 0c1.368 0 2.476-1.109 2.476-2.476 0-1.368-1.109-2.476-2.476-2.476-1.368 0-2.476 1.109-2.476 2.476 0 1.368 1.109 2.476 2.476 2.476z"/>
	</symbol>

	<symbol id="ico-4-2" xmlns="http://www.w3.org/2000/svg" viewBox="0 0 100 100">
		<path d="M54.799 24.936c-1.45 0-2.629 1.18-2.629 2.629s1.179 2.629 2.629 2.629 2.629-1.18 2.629-2.629-1.18-2.629-2.629-2.629zm-20.035 0c-1.45 0-2.629 1.18-2.629 2.629s1.179 2.629 2.629 2.629 2.629-1.18 2.629-2.629-1.179-2.629-2.629-2.629zm10.017 0c-1.45 0-2.629 1.18-2.629 2.629s1.179 2.629 2.629 2.629c1.449 0 2.628-1.18 2.628-2.629s-1.178-2.629-2.628-2.629zm20.035 0c-1.45 0-2.629 1.18-2.629 2.629s1.179 2.629 2.629 2.629c1.449 0 2.628-1.18 2.628-2.629s-1.179-2.629-2.628-2.629zM93.949.722H6.287C3.257.722.791 3.188.791 6.219V93.88c0 3.03 2.466 5.496 5.496 5.496h87.662c3.03 0 5.496-2.466 5.496-5.496V6.219c0-3.031-2.466-5.497-5.496-5.497zM4.291 44.911h2.2c2.908 0 5.274 2.366 5.274 5.274s-2.366 5.274-5.274 5.274h-2.2V44.911zm91.654 10.548h-2.209c-2.908 0-5.274-2.366-5.274-5.274s2.366-5.274 5.274-5.274h2.209v10.548zm0-14.048h-2.209c-4.838 0-8.774 3.936-8.774 8.774s3.937 8.774 8.774 8.774h2.209v34.92c0 1.101-.896 1.996-1.996 1.996H6.287c-1.101 0-1.996-.896-1.996-1.996v-34.92h2.2c4.838 0 8.774-3.936 8.774-8.774s-3.937-8.774-8.774-8.774h-2.2V6.219c0-1.101.896-1.997 1.996-1.997h87.662c1.101 0 1.996.896 1.996 1.997v35.192zM64.816 74.409c1.449 0 2.628-1.18 2.628-2.629s-1.179-2.628-2.628-2.628c-1.45 0-2.629 1.179-2.629 2.628s1.179 2.629 2.629 2.629zm11.214-55.91H23.867v14.774h-7.496v32.918h7.496v14.803H76.03V66.191h7.675V33.273H76.03V18.499zm-48.663 3.5H72.53v11.274H27.367V21.999zm-7.496 40.692V36.773h3.996v.006H48.13v25.912H19.871zM72.53 77.494H27.367v-11.28H72.53v11.28zm7.675-40.721v25.918H51.63V36.779h24.4v-.006h4.175zM34.764 74.409c1.45 0 2.629-1.18 2.629-2.629s-1.179-2.628-2.629-2.628-2.629 1.179-2.629 2.628 1.179 2.629 2.629 2.629zm20.035 0c1.45 0 2.629-1.18 2.629-2.629s-1.179-2.628-2.629-2.628-2.629 1.179-2.629 2.628 1.179 2.629 2.629 2.629zm-10.018 0c1.449 0 2.628-1.18 2.628-2.629s-1.179-2.628-2.628-2.628c-1.45 0-2.629 1.179-2.629 2.628s1.18 2.629 2.629 2.629z"/>
	</symbol>

	<symbol id="ico-4-3" xmlns="http://www.w3.org/2000/svg" viewBox="0 0 100 100">
		<path d="M41.294 57.894c-.54-.936-1.508-1.495-2.589-1.495s-2.049.559-2.589 1.495l-8.647 14.979c-.541.936-.542 2.054-.002 2.99.541.937 1.509 1.495 2.59 1.495h17.297c1.081 0 2.049-.559 2.59-1.495.54-.937.539-2.055-.001-2.989l-8.649-14.98zM30.941 73.857l7.764-13.448 7.764 13.448H30.941zM82.15 10.972H17.286c-3.472 0-6.297 2.825-6.297 6.296v64.865c0 3.472 2.825 6.297 6.297 6.297H82.15c3.472 0 6.297-2.825 6.297-6.297V17.268c0-3.472-2.825-6.296-6.297-6.296zm2.797 71.161c0 1.542-1.255 2.797-2.797 2.797H17.286c-1.542 0-2.797-1.255-2.797-2.797V17.268c0-1.542 1.255-2.796 2.797-2.796H82.15c1.542 0 2.797 1.254 2.797 2.796v64.865zM89.002.448H10.435C4.939.448.467 4.92.467 10.416v78.568c0 5.496 4.472 9.968 9.968 9.968h78.567c5.497 0 9.969-4.472 9.969-9.968V10.417c0-5.497-4.472-9.969-9.969-9.969zm6.469 88.536c0 3.566-2.902 6.468-6.469 6.468H10.435c-3.566 0-6.468-2.901-6.468-6.468V10.417c0-3.566 2.901-6.468 6.468-6.468h78.567c3.566 0 6.469 2.902 6.469 6.468v78.567zm-32.565-63.09h.581c1.103 0 2-.897 2-2v-.581c0-1.103-.897-2-2-2h-.581c-1.103 0-2 .897-2 2v.581c0 1.102.897 2 2 2zm12.041-4.581h-.581c-1.103 0-2 .897-2 2v.581c0 1.103.897 2 2 2h.581c1.103 0 2-.897 2-2v-.581c0-1.103-.897-2-2-2zm-2.882 10.733H30.013c-2.244 0-4.07 1.826-4.07 4.07v10.027c0 2.245 1.826 4.071 4.07 4.071h42.053c2.244 0 4.07-1.826 4.07-4.071V36.116c0-2.244-1.826-4.07-4.071-4.07zm.571 14.098c0 .315-.256.571-.57.571H30.013c-.314 0-.57-.256-.57-.571V36.116c0-.314.256-.57.57-.57h42.053c.314 0 .57.256.57.57v10.028zM70.07 56.399H52.773c-1.081 0-2.049.559-2.589 1.495-.541.936-.54 2.054 0 2.989l8.648 14.979c.541.937 1.509 1.495 2.59 1.495 1.08 0 2.048-.559 2.589-1.495l8.649-14.98c.539-.936.539-2.054-.002-2.989s-1.508-1.494-2.588-1.494zm-8.648 16.948l-7.764-13.448h15.528l-7.764 13.448z"/>
	</symbol>

</svg>